# This file uses centimeters as units for non-parametric coordinates.

mtllib cealing.mtl
g default
v 4.787359 0.000000 -4.787359
v 7.181040 0.000000 -4.787359
v 7.181040 0.000000 -7.181040
v 4.787359 0.000000 -7.181040
v 2.393680 0.000000 -2.393680
v 4.787359 0.000000 -2.393680
v 2.393680 0.000000 -4.787359
v 9.574720 0.000000 -9.574720
v 11.968399 0.000000 -9.574720
v 11.968399 0.000000 -11.968399
v 9.574720 0.000000 -11.968399
v 9.574720 0.000000 -7.181040
v 7.181040 0.000000 -9.574720
v 1.425375 0.000000 -0.324180
v 0.309017 0.000000 -0.951057
v 0.309017 -0.000000 0.951057
v -0.809017 -0.000000 0.587785
v 0.000000 -0.000000 0.850651
v 1.112887 0.000000 0.000000
v 2.393680 0.000000 0.000000
v 0.000000 0.000000 -2.393680
v 0.000000 0.000000 -0.850651
v -2.393680 -0.000000 4.692145
v -2.393680 -0.000000 2.393680
v -4.787359 -0.000000 2.393680
v -4.787359 -0.000000 4.787359
v -2.656808 -0.000000 4.787359
v -2.845175 -0.000000 4.855520
v -2.393680 -0.000000 5.189645
v -1.376789 -0.000000 4.279234
v -2.386442 -0.000000 5.726808
v -0.473564 -0.000000 4.259260
v -0.535180 -0.000000 4.787359
v -1.992506 -0.000000 6.719299
v 7.700434 0.000000 -3.985100
v 7.559474 0.000000 -2.712559
v -9.574719 -0.000000 11.968399
v -7.181040 -0.000000 11.968399
v -7.181040 -0.000000 9.574719
v -9.574719 -0.000000 9.574719
v 4.787359 0.000000 0.000000
v 11.968399 0.000000 -7.181040
v 7.181040 0.000000 -2.393680
v 9.574720 0.000000 -4.787359
v 9.310444 0.000000 -3.455619
v -0.684143 -0.000000 6.169250
v 7.836622 0.000000 -2.393680
v -7.181040 -0.000000 7.181190
v -4.787359 -0.000000 9.574719
v -4.787359 -0.000000 7.181040
v -7.180921 -0.000000 7.181040
v 8.346073 0.000000 -1.344408
v 9.412798 0.000000 -2.284512
v 3.591247 -0.000000 3.662930
v 2.639034 -0.000000 4.146165
v 4.416828 -0.000000 3.126279
v 2.965829 -0.000000 4.787359
v 3.306673 -0.000000 5.398612
v 4.787359 -0.000000 3.915450
v 7.181040 0.000000 0.000000
v 0.000000 -0.000000 4.787359
v 2.393680 -0.000000 4.787359
v 2.393680 -0.000000 2.393680
v 0.000000 -0.000000 2.393680
v 4.787359 -0.000000 2.393680
v -4.787359 -0.000000 11.968399
v -2.393680 -0.000000 9.574719
v -2.393680 -0.000000 7.181040
v 11.968399 0.000000 -4.787359
v 4.787359 -0.000000 5.422524
v 5.125257 -0.000000 4.535672
v 4.979946 -0.000000 4.787359
v 5.227923 -0.000000 5.433266
v 7.777864 -0.000000 4.787359
v 8.291683 -0.000000 4.138650
v 7.431076 -0.000000 5.267244
v 4.787359 -0.000000 8.275393
v 4.486130 -0.000000 8.367126
v 8.960709 -0.000000 4.787359
v 7.181040 -0.000000 2.393680
v 0.000000 -0.000000 7.181040
v 2.393680 -0.000000 7.181040
v 0.000000 -0.000000 9.574719
v -2.393680 -0.000000 11.968399
v 9.574720 0.000000 -2.393680
v 11.968399 0.000000 -2.393680
v 5.443238 -0.000000 7.516731
v 4.266502 -0.000000 9.574719
v 9.127586 -0.000000 4.803098
v 6.283932 -0.000000 8.988368
v 4.153659 -0.000000 9.909864
v 8.199721 -0.000000 7.028378
v 4.787359 -0.000000 9.781549
v 9.574720 -0.000000 5.285452
v 8.973009 -0.000000 6.561215
v 9.959314 -0.000000 5.330173
v 5.575426 -0.000000 9.926443
v 9.574720 -0.000000 5.784684
v 0.000000 -0.000000 11.968399
v 9.574720 0.000000 0.000000
v 11.968399 0.000000 0.000000
v 2.393680 -0.000000 9.574719
v 9.574720 -0.000000 2.393680
v 9.403256 0.000000 -2.393680
v 2.393680 -0.000000 11.968399
v 11.968399 -0.000000 2.393680
v 9.574720 -0.000000 4.787359
v 11.968399 -0.000000 4.787359
v 7.181040 -0.000000 9.574719
v 9.574720 -0.000000 9.574719
v 9.574720 -0.000000 7.181040
v 7.181040 -0.000000 7.181040
v 7.181040 -0.000000 11.968399
v 9.574720 -0.000000 11.968399
v 11.968399 -0.000000 9.574719
v 11.968399 -0.000000 7.181040
v 4.787359 -0.000000 7.181040
v 7.181040 -0.000000 4.787359
v 11.968399 -0.000000 11.968399
v 5.841075 -0.000000 9.574719
v 4.787359 -0.000000 11.968399
v -11.968399 -0.000000 11.968399
v -11.968399 -0.000000 9.574719
v -0.809017 0.000000 0.000000
v -2.393680 0.000000 0.000000
v -7.181040 -0.000000 4.787359
v -7.181040 -0.000000 6.516372
v -6.940679 -0.000000 6.877093
v -7.669645 -0.000000 7.799359
v -9.090704 -0.000000 7.751516
v -1.257705 0.000000 -0.761428
v -8.884547 -0.000000 7.181040
v -7.748804 -0.000000 5.387322
v -9.574719 -0.000000 7.181040
v -8.724383 -0.000000 6.216463
v 2.208166 0.000000 -4.826667
v 2.130831 0.000000 -4.787359
v 0.821618 0.000000 -4.074505
v 4.643407 0.000000 -7.431185
v 0.000000 0.000000 -4.002375
v 1.645957 0.000000 -5.635060
v 7.181040 0.000000 -11.968399
v -4.787359 0.000000 0.000000
v -11.968399 -0.000000 7.181040
v 2.393680 0.000000 -7.181040
v -7.181040 -0.000000 2.393680
v 4.787359 0.000000 -9.574720
v -0.072326 0.000000 -3.943818
v -5.820847 -0.000000 2.067889
v -6.881866 -0.000000 1.947627
v -5.689421 -0.000000 0.654704
v -0.078148 0.000000 -4.787359
v 1.133179 0.000000 -6.571694
v -7.181040 -0.000000 1.750554
v -0.097776 0.000000 -5.865213
v 0.000000 0.000000 -5.925818
v -6.653821 0.000000 0.000000
v -7.866519 -0.000000 1.941633
v -7.682823 -0.000000 0.374943
v -7.181040 0.000000 -0.366025
v 4.505410 0.000000 -8.324030
v -7.245944 0.000000 0.000000
v -7.274794 0.000000 -0.431114
v 2.722284 0.000000 -7.390018
v -2.393680 0.000000 -2.393680
v -4.787359 0.000000 -2.393680
v -9.574719 -0.000000 4.787359
v -11.968399 -0.000000 4.787359
v 4.787359 0.000000 -11.968399
v -9.574719 -0.000000 2.393680
v -5.702240 0.000000 -3.096934
v -6.297494 0.000000 -2.417311
v -5.135592 0.000000 -4.569066
v 3.809174 0.000000 -9.574720
v 3.741931 0.000000 -9.704379
v -7.181040 0.000000 -3.438586
v 3.670108 0.000000 -9.574720
v 2.005756 0.000000 -8.615152
v 2.393680 0.000000 -7.922955
v -6.059071 0.000000 -4.787359
v -6.087972 0.000000 -4.819165
v 2.938164 0.000000 -9.135575
v -6.234323 0.000000 -4.787359
v -6.654541 0.000000 -4.787359
v -6.576567 0.000000 -4.712981
v -7.563909 0.000000 -3.862511
v 2.393680 0.000000 -8.658334
v -7.241758 0.000000 -4.787359
v -7.085980 0.000000 -5.198905
v -7.181040 0.000000 -4.947770
v -2.393680 0.000000 -4.787359
v -4.787359 0.000000 -4.787359
v -11.968399 -0.000000 2.393680
v -2.393680 0.000000 -7.181040
v -4.787359 0.000000 -7.181040
v -9.574719 0.000000 0.000000
v -11.968399 0.000000 0.000000
v 0.000000 0.000000 -9.574720
v 2.393680 0.000000 -9.574720
v 2.393680 0.000000 -11.968399
v 0.000000 0.000000 -11.968399
v 0.000000 0.000000 -7.181040
v -2.393680 0.000000 -9.574720
v -7.181040 0.000000 -2.393680
v -9.574719 0.000000 -2.393680
v -11.968399 0.000000 -2.393680
v -4.787359 0.000000 -9.574720
v -2.393680 0.000000 -11.968399
v -9.574719 0.000000 -4.787359
v -11.968399 0.000000 -4.787359
v -4.787359 0.000000 -11.968399
v -7.181040 0.000000 -7.181040
v -7.181040 0.000000 -9.574720
v -9.574719 0.000000 -7.181040
v -11.968399 0.000000 -7.181040
v -7.181040 0.000000 -11.968399
v -9.574719 0.000000 -9.574720
v -11.968399 0.000000 -9.574720
v -9.574719 0.000000 -11.968399
v -11.968399 0.000000 -11.968399
vt 0.700000 0.700000
vt 0.800000 0.700000
vt 0.800000 0.800000
vt 0.700000 0.800000
vt 0.600000 0.600000
vt 0.700000 0.600000
vt 0.600000 0.700000
vt 0.900000 0.900000
vt 1.000000 0.900000
vt 1.000000 1.000000
vt 0.900000 1.000000
vt 0.900000 0.800000
vt 0.800000 0.900000
vt 0.546493 0.500000
vt 0.600000 0.500000
vt 0.500000 0.600000
vt 0.500000 0.535537
vt 0.512910 0.539732
vt 0.559547 0.513543
vt 0.400000 0.303978
vt 0.400000 0.400000
vt 0.300000 0.400000
vt 0.300000 0.300000
vt 0.389007 0.300000
vt 0.100000 0.000000
vt 0.200000 0.000000
vt 0.200000 0.100000
vt 0.100000 0.100000
vt 0.700000 0.500000
vt 1.000000 0.800000
vt 0.800000 0.600000
vt 0.900000 0.700000
vt 0.200000 0.199994
vt 0.300000 0.100000
vt 0.300000 0.200000
vt 0.200005 0.200000
vt 0.800000 0.500000
vt 0.500000 0.300000
vt 0.600000 0.300000
vt 0.600000 0.400000
vt 0.500000 0.400000
vt 0.700000 0.400000
vt 0.300000 0.000000
vt 0.400000 0.100000
vt 0.400000 0.200000
vt 1.000000 0.700000
vt 0.512910 0.460268
vt 0.500000 0.464463
vt 0.400000 0.283194
vt 0.381138 0.297152
vt 0.800000 0.400000
vt 0.500000 0.200000
vt 0.600000 0.200000
vt 0.500000 0.100000
vt 0.400000 0.000000
vt 0.900000 0.600000
vt 1.000000 0.600000
vt 0.477642 0.300000
vt 0.442482 0.321228
vt 0.480216 0.322062
vt 0.500000 0.000000
vt 0.900000 0.500000
vt 1.000000 0.500000
vt 0.600000 0.100000
vt 0.900000 0.400000
vt 0.600000 0.000000
vt 1.000000 0.400000
vt 0.900000 0.279191
vt 0.900000 0.300000
vt 0.874349 0.300000
vt 0.881320 0.299342
vt 1.000000 0.300000
vt 0.800000 0.100000
vt 0.900000 0.100000
vt 0.900000 0.200000
vt 0.800000 0.200000
vt 0.471419 0.242269
vt 0.416760 0.219290
vt 0.400302 0.260753
vt 0.800000 0.000000
vt 0.900000 0.000000
vt 1.000000 0.100000
vt 1.000000 0.200000
vt 0.700000 0.200000
vt 0.700000 0.273465
vt 0.638142 0.274464
vt 0.623902 0.300000
vt 0.708046 0.300000
vt 0.800000 0.300000
vt 0.700000 0.336425
vt 0.714116 0.310515
vt 1.000000 0.000000
vt 0.718405 0.273016
vt 0.827388 0.600000
vt 0.815810 0.613322
vt 0.821699 0.666484
vt 0.888959 0.644364
vt 0.892837 0.600000
vt 0.678240 0.100000
vt 0.687416 0.150449
vt 0.700000 0.154282
vt 0.893235 0.595439
vt 0.848671 0.556165
vt 0.610250 0.326787
vt 0.650030 0.346975
vt 0.684520 0.369394
vt 0.700000 0.000000
vt 0.700000 0.091359
vt 0.673526 0.085999
vt 0.744021 0.100000
vt 0.732923 0.085306
vt 0.824933 0.300000
vt 0.846399 0.327101
vt 0.727400 0.185976
vt 0.762522 0.124496
vt 0.916067 0.277323
vt 0.900000 0.258335
vt 0.874863 0.225894
vt 0.842557 0.206378
vt 0.810446 0.279952
vt 0.000000 0.000000
vt 0.000000 0.100000
vt 0.466202 0.475444
vt 0.466202 0.500000
vt 0.400000 0.500000
vt 0.200000 0.300000
vt 0.200000 0.227768
vt 0.210041 0.212698
vt 0.179588 0.174169
vt 0.120221 0.176167
vt 0.128833 0.200000
vt 0.100000 0.200000
vt 0.800000 1.000000
vt 0.300000 0.500000
vt 0.000000 0.200000
vt 0.600000 0.800000
vt 0.200000 0.400000
vt 0.700000 0.900000
vt 0.400000 0.600000
vt 0.300000 0.600000
vt 0.100000 0.300000
vt 0.000000 0.300000
vt 0.700000 1.000000
vt 0.100000 0.400000
vt 0.447457 0.531810
vt 0.589019 0.700000
vt 0.534324 0.670219
vt 0.500000 0.667206
vt 0.239551 0.700000
vt 0.221995 0.700000
vt 0.225253 0.696893
vt 0.400000 0.700000
vt 0.300000 0.700000
vt 0.000000 0.400000
vt 0.135524 0.240297
vt 0.176281 0.274936
vt 0.400000 0.800000
vt 0.300000 0.800000
vt 0.100000 0.500000
vt 0.000000 0.500000
vt 0.500000 0.900000
vt 0.600000 0.900000
vt 0.600000 1.000000
vt 0.500000 1.000000
vt 0.500000 0.800000
vt 0.400000 0.900000
vt 0.496978 0.664760
vt 0.496735 0.700000
vt 0.222025 0.500000
vt 0.200000 0.600000
vt 0.200000 0.515291
vt 0.100000 0.600000
vt 0.000000 0.600000
vt 0.300000 0.900000
vt 0.400000 1.000000
vt 0.653325 0.900000
vt 0.600000 0.861716
vt 0.622747 0.881654
vt 0.100000 0.700000
vt 0.000000 0.700000
vt 0.300000 1.000000
vt 0.200000 0.800000
vt 0.200000 0.900000
vt 0.495915 0.745029
vt 0.500000 0.747561
vt 0.100000 0.800000
vt 0.000000 0.800000
vt 0.200000 1.000000
vt 0.100000 0.900000
vt 0.547340 0.774544
vt 0.568763 0.735414
vt 0.592250 0.701642
vt 0.262315 0.472649
vt 0.256824 0.413610
vt 0.212498 0.418635
vt 0.200000 0.426868
vt 0.000000 0.900000
vt 0.100000 1.000000
vt 0.197289 0.500000
vt 0.196083 0.518010
vt 0.656325 0.905417
vt 0.659135 0.900000
vt 0.600000 0.830995
vt 0.583794 0.859912
vt 0.171363 0.418885
vt 0.179037 0.484336
vt 0.000000 1.000000
vt 0.200000 0.706701
vt 0.197463 0.700000
vt 0.200000 0.643653
vt 0.184005 0.661363
vt 0.246872 0.700000
vt 0.285452 0.690880
vt 0.261779 0.629380
vt 0.236912 0.600987
vt 0.688221 0.847750
vt 0.693986 0.810450
vt 0.613728 0.808730
vt 0.245665 0.701329
vt 0.203971 0.717193
vn 0.000000 1.000000 0.000000
vn -0.000000 1.000000 0.000000
vn 0.000000 1.000000 0.000000
vn 0.000000 1.000000 0.000000
vn -0.000000 1.000000 0.000000
vn 0.000000 1.000000 0.000000
vn -0.000000 1.000000 0.000000
vn 0.000000 1.000000 0.000000
vn 0.000000 1.000000 0.000000
vn 0.000000 1.000000 0.000000
vn 0.000000 1.000000 0.000000
vn 0.000000 1.000000 0.000000
vn 0.000000 1.000000 0.000000
vn -0.000000 1.000000 0.000000
vn -0.000000 1.000000 0.000000
vn -0.000000 1.000000 0.000000
vn -0.000000 1.000000 0.000000
vn -0.000000 1.000000 0.000000
vn -0.000000 1.000000 0.000000
vn -0.000000 1.000000 0.000000
vn -0.000000 1.000000 0.000000
vn -0.000000 1.000000 0.000000
vn -0.000000 1.000000 0.000000
vn -0.000000 1.000000 0.000000
vn 0.000000 1.000000 0.000000
vn 0.000000 1.000000 0.000000
vn -0.000000 1.000000 0.000000
vn -0.000000 1.000000 0.000000
vn 0.000000 1.000000 0.000000
vn 0.000000 1.000000 0.000000
vn -0.000000 1.000000 0.000000
vn -0.000000 1.000000 0.000000
vn -0.000000 1.000000 0.000000
vn -0.000000 1.000000 0.000000
vn -0.000000 1.000000 0.000000
vn -0.000000 1.000000 0.000000
vn 0.000000 1.000000 0.000000
vn -0.000000 1.000000 0.000000
vn 0.000000 1.000000 0.000000
vn -0.000000 1.000000 0.000000
vn -0.000000 1.000000 0.000000
vn -0.000000 1.000000 0.000000
vn 0.000000 1.000000 0.000000
vn 0.000000 1.000000 0.000000
vn -0.000000 1.000000 0.000000
vn 0.000000 1.000000 0.000000
vn -0.000000 1.000000 0.000000
vn -0.000000 1.000000 0.000000
vn -0.000000 1.000000 0.000000
vn -0.000000 1.000000 0.000000
vn -0.000000 1.000000 0.000000
vn -0.000000 1.000000 0.000000
vn -0.000000 1.000000 0.000000
vn 0.000000 1.000000 0.000000
vn 0.000000 1.000000 0.000000
vn -0.000000 1.000000 0.000000
vn 0.000000 1.000000 0.000000
vn -0.000000 1.000000 0.000000
vn -0.000000 1.000000 0.000000
vn -0.000000 1.000000 0.000000
vn 0.000000 1.000000 0.000000
vn 0.000000 1.000000 0.000000
vn 0.000000 1.000000 0.000000
vn -0.000000 1.000000 0.000000
vn 0.000000 1.000000 0.000000
vn -0.000000 1.000000 0.000000
vn 0.000000 1.000000 0.000000
vn -0.000000 1.000000 0.000000
vn -0.000000 1.000000 0.000000
vn -0.000000 1.000000 0.000000
vn -0.000000 1.000000 0.000000
vn -0.000000 1.000000 0.000000
vn -0.000000 1.000000 0.000000
vn 0.000000 1.000000 0.000000
vn -0.000000 1.000000 0.000000
vn 0.000000 1.000000 0.000000
vn -0.000000 1.000000 0.000000
vn -0.000000 1.000000 0.000000
vn -0.000000 1.000000 0.000000
vn -0.000000 1.000000 0.000000
vn 0.000000 1.000000 0.000000
vn 0.000000 1.000000 0.000000
vn -0.000000 1.000000 0.000000
vn -0.000000 1.000000 0.000000
vn 0.000000 1.000000 0.000000
vn 0.000000 1.000000 0.000000
vn 0.000000 1.000000 0.000000
vn -0.000000 1.000000 0.000000
vn -0.000000 1.000000 0.000000
vn -0.000000 1.000000 0.000000
vn -0.000000 1.000000 0.000000
vn 0.000000 1.000000 0.000000
vn 0.000000 1.000000 0.000000
vn -0.000000 1.000000 0.000000
vn -0.000000 1.000000 0.000000
vn -0.000000 1.000000 0.000000
vn -0.000000 1.000000 0.000000
vn -0.000000 1.000000 0.000000
vn -0.000000 1.000000 0.000000
vn -0.000000 1.000000 0.000000
vn -0.000000 1.000000 0.000000
vn 0.000000 1.000000 0.000000
vn 0.000000 1.000000 0.000000
vn -0.000000 1.000000 0.000000
vn -0.000000 1.000000 0.000000
vn -0.000000 1.000000 0.000000
vn -0.000000 1.000000 0.000000
vn -0.000000 1.000000 0.000000
vn -0.000000 1.000000 0.000000
vn -0.000000 1.000000 0.000000
vn -0.000000 1.000000 0.000000
vn 0.000000 1.000000 0.000000
vn 0.000000 1.000000 0.000000
vn -0.000000 1.000000 0.000000
vn -0.000000 1.000000 0.000000
vn -0.000000 1.000000 0.000000
vn -0.000000 1.000000 0.000000
vn 0.000000 1.000000 0.000000
vn 0.000000 1.000000 0.000000
vn 0.000000 1.000000 0.000000
vn 0.000000 1.000000 0.000000
vn 0.000000 1.000000 0.000000
vn -0.000000 1.000000 0.000000
vn -0.000000 1.000000 0.000000
vn -0.000000 1.000000 0.000000
vn -0.000000 1.000000 0.000000
vn -0.000000 1.000000 0.000000
vn -0.000000 1.000000 0.000000
vn -0.000000 1.000000 0.000000
vn -0.000000 1.000000 0.000000
vn -0.000000 1.000000 0.000000
vn -0.000000 1.000000 0.000000
vn 0.000000 1.000000 0.000000
vn -0.000000 1.000000 0.000000
vn 0.000000 1.000000 0.000000
vn 0.000000 1.000000 0.000000
vn -0.000000 1.000000 0.000000
vn 0.000000 1.000000 0.000000
vn -0.000000 1.000000 0.000000
vn -0.000000 1.000000 0.000000
vn -0.000000 1.000000 0.000000
vn 0.000000 1.000000 0.000000
vn 0.000000 1.000000 0.000000
vn 0.000000 1.000000 0.000000
vn -0.000000 1.000000 0.000000
vn -0.000000 1.000000 0.000000
vn -0.000000 1.000000 0.000000
vn -0.000000 1.000000 0.000000
vn 0.000000 1.000000 0.000000
vn 0.000000 1.000000 0.000000
vn 0.000000 1.000000 -0.000000
vn -0.000000 1.000000 0.000000
vn -0.000000 1.000000 0.000000
vn 0.000000 1.000000 0.000000
vn -0.000000 1.000000 0.000000
vn -0.000000 1.000000 0.000000
vn -0.000000 1.000000 0.000000
vn 0.000000 1.000000 0.000000
vn 0.000000 1.000000 0.000000
vn 0.000000 1.000000 0.000000
vn -0.000000 1.000000 0.000000
vn -0.000000 1.000000 0.000000
vn 0.000000 1.000000 0.000000
vn 0.000000 1.000000 0.000000
vn -0.000000 1.000000 0.000000
vn 0.000000 1.000000 0.000000
vn -0.000000 1.000000 0.000000
vn -0.000000 1.000000 0.000000
vn -0.000000 1.000000 0.000000
vn -0.000000 1.000000 0.000000
vn -0.000000 1.000000 0.000000
vn -0.000000 1.000000 0.000000
vn 0.000000 1.000000 0.000000
vn 0.000000 1.000000 0.000000
vn 0.000000 1.000000 0.000000
vn 0.000000 1.000000 0.000000
vn -0.000000 1.000000 0.000000
vn 0.000000 1.000000 0.000000
vn -0.000000 1.000000 0.000000
vn 0.000000 1.000000 0.000000
vn 0.000000 1.000000 0.000000
vn 0.000000 1.000000 0.000000
vn 0.000000 1.000000 0.000000
vn -0.000000 1.000000 0.000000
vn -0.000000 1.000000 0.000000
vn -0.000000 1.000000 0.000000
vn 0.000000 1.000000 0.000000
vn 0.000000 1.000000 0.000000
vn 0.000000 1.000000 0.000000
vn -0.000000 1.000000 0.000000
vn -0.000000 1.000000 0.000000
vn -0.000000 1.000000 0.000000
vn -0.000000 1.000000 0.000000
vn -0.000000 1.000000 0.000000
vn -0.000000 1.000000 0.000000
vn 0.000000 1.000000 0.000000
vn 0.000000 1.000000 0.000000
vn 0.000000 1.000000 0.000000
vn 0.000000 1.000000 0.000000
vn -0.000000 1.000000 0.000000
vn 0.000000 1.000000 0.000000
vn 0.000000 1.000000 0.000000
vn -0.000000 1.000000 0.000000
vn -0.000000 1.000000 0.000000
vn 0.000000 1.000000 0.000000
vn 0.000000 1.000000 0.000000
vn 0.000000 1.000000 0.000000
vn 0.000000 1.000000 0.000000
vn -0.000000 1.000000 0.000000
vn -0.000000 1.000000 0.000000
vn -0.000000 1.000000 0.000000
vn -0.000000 1.000000 0.000000
vn -0.000000 1.000000 0.000000
vn -0.000000 1.000000 0.000000
vn -0.000000 1.000000 0.000000
vn 0.000000 1.000000 0.000000
vn 0.000000 1.000000 0.000000
vn 0.000000 1.000000 0.000000
vn 0.000000 1.000000 0.000000
vn 0.000000 1.000000 0.000000
s 1
g pPlane12
usemtl initialShadingGroup
f 1/1/1 2/2/2 3/3/3 4/4/4
f 5/5/5 6/6/6 1/1/1 7/7/7
f 8/8/8 9/9/9 10/10/10 11/11/11
f 3/3/3 12/12/12 8/8/8 13/13/13
f 19/14/14 20/15/15 5/5/5 21/16/16 22/17/17 15/18/18 14/19/19
f 23/20/20 24/21/21 25/22/22 26/23/23 27/24/24
f 37/25/25 38/26/26 39/27/27 40/28/28
f 20/15/15 41/29/29 6/6/6 5/5/5
f 12/12/12 42/30/30 9/9/9 8/8/8
f 6/6/6 43/31/31 2/2/2 1/1/1
f 2/2/2 44/32/32 12/12/12 3/3/3
f 48/33/33 39/27/27 49/34/34 50/35/35 51/36/36
f 41/29/29 60/37/37 43/31/31 6/6/6
f 61/38/38 62/39/39 63/40/40 64/41/41
f 63/40/40 65/42/42 41/29/29 20/15/15
f 38/26/26 66/43/43 49/34/34 39/27/27
f 49/34/34 67/44/44 68/45/45 50/35/35
f 44/32/32 69/46/46 42/30/30 12/12/12
f 64/41/41 63/40/40 20/15/15 19/14/14 16/47/47 18/48/48
f 50/35/35 68/45/45 29/49/49 28/50/50 27/24/24 26/23/23
f 65/42/42 80/51/51 60/37/37 41/29/29
f 81/52/52 82/53/53 62/39/39 61/38/38
f 67/44/44 83/54/54 81/52/52 68/45/45
f 66/43/43 84/55/55 67/44/44 49/34/34
f 85/56/56 86/57/57 69/46/46 44/32/32
f 33/58/58 61/38/38 64/41/41 24/21/21 23/20/20 30/59/59 32/60/60
f 84/55/55 99/61/61 83/54/54 67/44/44
f 100/62/62 101/63/63 86/57/57 85/56/56
f 83/54/54 102/64/64 82/53/53 81/52/52
f 80/51/51 103/65/65 100/62/62 60/37/37
f 99/61/61 105/66/66 102/64/64 83/54/54
f 103/65/65 106/67/67 101/63/63 100/62/62
f 94/68/68 107/69/69 79/70/70 89/71/71
f 107/69/69 108/72/72 106/67/67 103/65/65
f 109/73/73 110/74/74 111/75/75 112/76/76
f 68/45/45 81/52/52 61/38/38 33/58/58 46/77/77 34/78/78 31/79/79 29/49/49
f 113/80/80 114/81/81 110/74/74 109/73/73
f 110/74/74 115/82/82 116/83/83 111/75/75
f 82/53/53 117/84/84 70/85/85 58/86/86 57/87/87 62/39/39
f 72/88/88 118/89/89 80/51/51 65/42/42 59/90/90 71/91/91
f 114/81/81 119/92/92 115/82/82 110/74/74
f 117/84/84 112/76/76 118/89/89 72/88/88 73/93/93 70/85/85
f 43/31/31 47/94/94 36/95/95 35/96/96 45/97/97 104/98/98 85/56/56 44/32/32 2/2/2
f 102/64/64 88/99/99 78/100/100 77/101/101 117/84/84 82/53/53
f 60/37/37 100/62/62 85/56/56 104/98/98 53/102/102 52/103/103 47/94/94 43/31/31
f 62/39/39 57/87/87 55/104/104 54/105/105 56/106/106 59/90/90 65/42/42 63/40/40
f 105/66/66 121/107/107 93/108/108 91/109/109 88/99/99 102/64/64
f 121/107/107 113/80/80 109/73/73 120/110/110 97/111/111 93/108/108
f 118/89/89 74/112/112 75/113/113 79/70/70 107/69/69 103/65/65 80/51/51
f 120/110/110 109/73/73 112/76/76 117/84/84 77/101/101 87/114/114 90/115/115
f 111/75/75 116/83/83 108/72/72 107/69/69 94/68/68 96/116/116 98/117/117
f 112/76/76 111/75/75 98/117/117 95/118/118 92/119/119 76/120/120 74/112/112 118/89/89
f 122/121/121 37/25/25 40/28/28 123/122/122
f 24/21/21 64/41/41 18/48/48 17/123/123 124/124/124 125/125/125
f 51/36/36 50/35/35 26/23/23 126/126/126 127/127/127 128/128/128
f 40/28/28 39/27/27 48/33/33 129/129/129 130/130/130 132/131/131 134/132/132
f 13/13/13 8/8/8 11/11/11 142/133/133
f 25/22/22 24/21/21 125/125/125 143/134/134
f 123/122/122 40/28/28 134/132/132 144/135/135
f 7/7/7 1/1/1 4/4/4 145/136/136
f 126/126/126 26/23/23 25/22/22 146/137/137
f 4/4/4 3/3/3 13/13/13 147/138/138
f 143/134/134 125/125/125 165/139/139 166/140/140
f 144/135/135 134/132/132 167/141/141 168/142/142
f 147/138/138 13/13/13 142/133/133 169/143/143
f 167/141/141 126/126/126 146/137/137 170/144/144
f 125/125/125 124/124/124 131/145/145 22/17/17 21/16/16 165/139/139
f 21/16/16 5/5/5 7/7/7 137/146/146 138/147/147 140/148/148
f 183/149/149 184/150/150 185/151/151
f 166/140/140 165/139/139 191/152/152 192/153/153
f 168/142/142 167/141/141 170/144/144 193/154/154
f 134/132/132 132/131/131 135/155/155 133/156/156 127/127/127 126/126/126 167/141/141
f 192/153/153 191/152/152 194/157/157 195/158/158
f 193/154/154 170/144/144 196/159/159 197/160/160
f 198/161/161 199/162/162 200/163/163 201/164/164
f 194/157/157 202/165/165 198/161/161 203/166/166
f 165/139/139 21/16/16 140/148/148 148/167/167 152/168/168 191/152/152
f 157/169/169 143/134/134 166/140/140 204/170/170 160/171/171
f 197/160/160 196/159/159 205/172/172 206/173/173
f 195/158/158 194/157/157 203/166/166 207/174/174
f 203/166/166 198/161/161 201/164/164 208/175/175
f 177/176/176 199/162/162 187/177/177 182/178/178
f 206/173/173 205/172/172 209/179/179 210/180/180
f 207/174/174 203/166/166 208/175/175 211/181/181
f 212/182/182 195/158/158 207/174/174 213/183/183
f 191/152/152 152/168/168 155/184/184 156/185/185 202/165/165 194/157/157
f 210/180/180 209/179/179 214/186/186 215/187/187
f 213/183/183 207/174/174 211/181/181 216/188/188
f 214/186/186 212/182/182 213/183/183 217/189/189
f 137/146/146 7/7/7 145/136/136 202/165/165 156/185/185 153/190/190 141/191/191 136/192/192
f 146/137/137 25/22/22 143/134/134 157/169/169 151/193/193 149/194/194 150/195/195 154/196/196
f 215/187/187 214/186/186 217/189/189 218/197/197
f 217/189/189 213/183/183 216/188/188 219/198/198
f 196/159/159 162/199/199 163/200/200 160/171/171 204/170/170 205/172/172
f 199/162/162 177/176/176 175/201/201 174/202/202 147/138/138 169/143/143 200/163/163
f 202/165/165 145/136/136 179/203/203 178/204/204 187/177/177 199/162/162 198/161/161
f 170/144/144 146/137/137 154/196/196 158/205/205 159/206/206 162/199/199 196/159/159
f 218/197/197 217/189/189 219/198/198 220/207/207
f 190/208/208 212/182/182 214/186/186 209/179/179 188/209/209
f 205/172/172 204/170/170 176/210/210 186/211/211 188/209/209 209/179/179
f 204/170/170 166/140/140 192/153/153 180/212/212 173/213/213 171/214/214 172/215/215 176/210/210
f 145/136/136 4/4/4 147/138/138 174/202/202 161/216/216 139/217/217 164/218/218 179/203/203
f 184/150/150 183/149/149 181/219/219 180/212/212 192/153/153 195/158/158 212/182/182 190/208/208 189/220/220
